HIERARCHY
ROOT Hips
{
	OFFSET 0.000000 0.000000 0.000000
	CHANNELS 6 Xposition Yposition Zposition Zrotation Yrotation Xrotation 
	JOINT LowerBack
	{
		OFFSET 0.000000 0.000000 0.000000
		CHANNELS 3 Zrotation Yrotation Xrotation
		JOINT Spine
		{
			OFFSET 0.028270 2.035590 -0.193380
			CHANNELS 3 Zrotation Yrotation Xrotation
			JOINT Spine1
			{
				OFFSET 0.056720 2.048850 -0.042750
				CHANNELS 3 Zrotation Yrotation Xrotation
				JOINT Neck
				{
					OFFSET 0.000000 0.000000 0.000000
					CHANNELS 3 Zrotation Yrotation Xrotation
					JOINT Neck1
					{
						OFFSET -0.054170 1.746240 0.172020
						CHANNELS 3 Zrotation Yrotation Xrotation
						JOINT Head
						{
							OFFSET 0.104070 1.761360 -0.123970
							CHANNELS 3 Zrotation Yrotation Xrotation
							End Site
							{
								OFFSET 0.000000 0.000000 0.000000
							}
						}
					}
				}
				JOINT LeftShoulder
				{
					OFFSET 0.000000 0.000000 0.000000
					CHANNELS 3 Zrotation Yrotation Xrotation
					JOINT LeftArm
					{
						OFFSET 3.362410 1.200890 -0.311210
						CHANNELS 3 Zrotation Yrotation Xrotation
						JOINT LeftForeArm
						{
							OFFSET 4.983000 -0.000000 -0.000000
							CHANNELS 3 Zrotation Yrotation Xrotation
							JOINT LeftHand
							{
								OFFSET 3.483560 -0.000000 -0.000000
								CHANNELS 3 Zrotation Yrotation Xrotation
								JOINT LeftFingerBase
								{
									OFFSET 0.000000 0.000000 0.000000
									CHANNELS 3 Zrotation Yrotation Xrotation
									JOINT LeftHandIndex1
									{
										OFFSET 0.715260 -0.000000 -0.000000
										CHANNELS 3 Zrotation Yrotation Xrotation
										End Site
										{
											OFFSET 0.000000 0.000000 0.000000
										}
									}
								}
								JOINT LThumb
								{
									OFFSET 0.000000 0.000000 0.000000
									CHANNELS 3 Zrotation Yrotation Xrotation
									End Site
									{
										OFFSET 0.000000 0.000000 0.000000
									}
								}
							}
						}
					}
				}
				JOINT RightShoulder
				{
					OFFSET 0.000000 0.000000 0.000000
					CHANNELS 3 Zrotation Yrotation Xrotation
					JOINT RightArm
					{
						OFFSET -3.136600 1.374050 -0.404650
						CHANNELS 3 Zrotation Yrotation Xrotation
						JOINT RightForeArm
						{
							OFFSET -5.241900 -0.000000 -0.000000
							CHANNELS 3 Zrotation Yrotation Xrotation
							JOINT RightHand
							{
								OFFSET -3.444170 -0.000000 -0.000000
								CHANNELS 3 Zrotation Yrotation Xrotation
								JOINT RightFingerBase
								{
									OFFSET 0.000000 0.000000 0.000000
									CHANNELS 3 Zrotation Yrotation Xrotation
									JOINT RightHandIndex1
									{
										OFFSET -0.622530 -0.000000 -0.000000
										CHANNELS 3 Zrotation Yrotation Xrotation
										End Site
										{
											OFFSET 0.000000 0.000000 0.000000
										}
									}
								}
								JOINT RThumb
								{
									OFFSET 0.000000 0.000000 0.000000
									CHANNELS 3 Zrotation Yrotation Xrotation
									End Site
									{
										OFFSET 0.000000 0.000000 0.000000
									}
								}
							}
						}
					}
				}
			}
		}
	}
}
}
MOTION
Frames: 14
Frame Time: 0.008333
10.322666 16.561890 -1.426717 35.590480 84.452335 32.352313 0.404630 -3.007526 1.949506 -0.356475 -3.021382 -1.783018 -5.123456 -2.979542 3.034746 8.635566 -16.805651 -11.530043 -1.880862 -0.081168 -1.058489 0.000000 0.000000 0.000000 3.977904 21.490872 0.530242 -57.634276 -1.406924 -1.785416 -2.073326 -50.422290 -0.025107 7.164835 3.459316 0.215649 -0.195784 0.125085 0.000000 0.000000 0.000000 0.000000 0.000000 0.000000 0.000000 11.809137 -13.851389 0.461856 78.671384 -15.611931 -24.972257 4.386067 10.134904 0.016264 0.308716 6.353170 0.010081 0.137138 -0.061708 -0.000000 0.000000 0.000000 0.000000 0.000000 0.000000 0.000000 
10.567906 16.669870 -1.407903 33.268076 84.770114 29.891763 0.981555 -3.302934 1.625345 -0.229141 -3.365230 -1.816106 -5.112680 -3.325266 3.095165 8.604238 -17.362187 -11.503637 -1.907973 -0.084481 -1.042306 0.000000 0.000000 0.000000 4.351453 21.339435 0.465411 -55.478778 -0.928338 -1.978754 -1.893187 -52.601959 -0.028181 7.424443 3.839210 0.248071 -0.199158 0.133154 -0.000000 0.000000 0.000000 0.000000 0.000000 0.000000 0.000000 12.182647 -14.617808 0.401552 78.948198 -17.156178 -24.410748 4.523330 10.201776 0.015191 1.254528 5.683492 0.056560 0.134498 -0.052977 -0.000000 0.000000 0.000000 0.000000 0.000000 0.000000 0.000000 
10.814179 16.782257 -1.387220 30.178622 85.154252 26.678373 1.589460 -3.600520 1.264554 -0.090159 -3.714779 -1.856358 -5.096453 -3.677100 3.160852 8.586467 -17.975464 -11.472450 -1.927345 -0.087351 -1.024653 0.000000 0.000000 0.000000 4.710458 21.197470 0.406672 -53.320245 -0.394477 -2.190873 -1.729197 -54.571510 -0.030858 7.527898 4.255138 0.279181 -0.200599 0.140167 -0.000000 0.000000 0.000000 0.000000 0.000000 0.000000 0.000000 12.549631 -15.433971 0.324061 79.107038 -18.730277 -23.531286 4.667333 10.513870 0.014129 2.322898 5.111702 0.099043 0.130842 -0.044273 -0.000000 0.000000 0.000000 0.000000 0.000000 0.000000 0.000000 
11.060347 16.897927 -1.363669 26.118086 85.602719 22.510897 2.205887 -3.899385 0.871590 0.055997 -4.067840 -1.903290 -5.078435 -4.032592 3.230509 8.594226 -18.626958 -11.433988 -1.941343 -0.090000 -1.005092 0.000000 0.000000 0.000000 5.080497 21.055360 0.353447 -51.186598 0.170294 -2.401783 -1.581519 -56.322368 -0.032982 7.493391 4.669418 0.305280 -0.199999 0.146459 0.000000 0.000000 0.000000 0.000000 0.000000 0.000000 0.000000 12.925167 -16.281785 0.231949 79.166064 -20.308806 -22.477793 4.812003 10.994406 0.013017 3.483116 4.633137 0.137229 0.126155 -0.035862 -0.000000 0.000000 0.000000 0.000000 0.000000 0.000000 0.000000 
11.305231 17.015729 -1.336172 20.794005 86.115940 17.096520 2.803041 -4.201658 0.454758 0.203739 -4.424683 -1.955406 -5.061138 -4.391830 3.302941 8.638257 -19.299755 -11.386588 -1.951527 -0.092555 -0.983353 0.000000 0.000000 0.000000 5.489175 20.901557 0.304690 -49.105389 0.747139 -2.595840 -1.449024 -57.853870 -0.034491 7.349937 5.049365 0.324268 -0.197427 0.152455 0.000000 0.000000 0.000000 0.000000 0.000000 0.000000 0.000000 13.320970 -17.147307 0.128486 79.149623 -21.866004 -21.371626 4.951272 11.567894 0.011812 4.685979 4.235205 0.170315 0.120626 -0.027938 -0.000000 0.000000 0.000000 0.000000 0.000000 0.000000 0.000000 
11.547745 17.134302 -1.303638 13.729036 86.702887 9.955216 3.346588 -4.514933 0.024192 0.346125 -4.790306 -2.010589 -5.045437 -4.759785 3.376780 8.725823 -19.973995 -11.328407 -1.958855 -0.095077 -0.959049 0.000000 0.000000 0.000000 5.965821 20.720945 0.259381 -47.103883 1.324563 -2.761632 -1.329747 -59.170324 -0.035423 7.135460 5.370140 0.334946 -0.193144 0.158618 0.000000 0.000000 0.000000 0.000000 0.000000 0.000000 0.000000 13.742706 -18.017146 0.017420 79.094373 -23.379122 -20.345813 5.080440 12.160471 0.010500 5.879693 3.899116 0.197800 0.114558 -0.020690 -0.000000 0.000000 0.000000 0.000000 0.000000 0.000000 0.000000 
11.786859 17.252231 -1.265156 3.849294 87.394488 0.007196 3.791945 -4.856556 -0.409189 0.474524 -5.178193 -2.066073 -5.029496 -5.150147 3.450495 8.858241 -20.626361 -11.256931 -1.963723 -0.097572 -0.931571 0.000000 0.000000 0.000000 6.534833 20.494045 0.217090 -45.206012 1.895558 -2.892249 -1.221362 -60.281017 -0.035900 6.891229 5.616690 0.338414 -0.187574 0.165389 0.000000 0.000000 0.000000 0.000000 0.000000 0.000000 0.000000 14.187484 -18.879682 -0.097770 79.048408 -24.830674 -19.551025 5.197185 12.700766 0.009112 7.020200 3.603185 0.218883 0.108293 -0.014303 -0.000000 0.000000 0.000000 0.000000 0.000000 0.000000 0.000000 
12.021800 17.367889 -1.220241 -12.414529 88.274912 -16.327426 4.048307 -5.266296 -0.832924 0.574227 -5.620021 -2.116988 -5.003495 -5.595338 3.523807 9.030405 -21.245867 -11.171083 -1.964758 -0.099834 -0.900736 0.000000 0.000000 0.000000 7.210344 20.194464 0.178894 -43.431395 2.449867 -2.986115 -1.121637 -61.199079 -0.036113 6.656255 5.783852 0.336376 -0.181311 0.173194 0.000000 0.000000 0.000000 0.000000 0.000000 0.000000 0.000000 14.645027 -19.746476 -0.216049 79.056046 -26.206069 -19.025732 5.297735 13.147101 0.007667 8.047036 3.329516 0.232164 0.102164 -0.008671 -0.000000 0.000000 0.000000 0.000000 0.000000 0.000000 0.000000 
12.252057 17.479663 -1.168942 -51.389496 89.456882 -55.385590 3.712070 -5.785490 -1.236438 0.570303 -6.130430 -2.156348 -4.942299 -6.111008 3.598509 9.233407 -21.803984 -11.065447 -1.960065 -0.101477 -0.865434 0.000000 0.000000 0.000000 7.996345 19.805059 0.144251 -41.781393 2.978462 -3.044817 -1.028187 -61.939109 -0.036275 6.462918 5.873918 0.331231 -0.175285 0.182011 -0.000000 0.000000 0.000000 0.000000 0.000000 0.000000 0.000000 15.105850 -20.607802 -0.334767 79.177300 -27.494143 -18.918812 5.377911 13.443910 0.006238 8.942562 3.066700 0.237842 0.096032 -0.004003 -0.000000 0.000000 0.000000 0.000000 0.000000 0.000000 0.000000 
12.477327 17.585997 -1.112151 56.947364 89.726935 52.882299 2.843501 -5.957776 -1.550621 0.407245 -6.277171 -2.192771 -4.905783 -6.257627 3.667795 9.476049 -22.292077 -10.960007 -1.937761 -0.101126 -0.831116 0.000000 0.000000 0.000000 8.862112 19.567544 0.076474 -40.248582 3.550647 -3.100148 -0.933073 -62.537252 -0.036305 6.334050 5.893437 0.325057 -0.168661 0.190286 -0.000000 0.000000 0.000000 0.000000 0.000000 0.000000 0.000000 15.520363 -21.235116 -0.390882 79.435513 -28.653810 -19.208340 5.440441 13.582141 0.005229 9.672768 2.802042 0.235333 0.091099 -0.001885 -0.000000 0.000000 0.000000 0.000000 0.000000 0.000000 0.000000 
12.697638 17.685585 -1.051446 25.922929 89.946980 21.770687 2.702357 -6.067715 -1.780584 0.382654 -6.401451 -2.219571 -4.909372 -6.382298 3.723749 9.711861 -22.713303 -10.856330 -1.907393 -0.100253 -0.797986 0.000000 0.000000 0.000000 9.768954 19.317187 0.008886 -38.897184 4.094416 -3.155234 -0.844792 -63.001867 -0.036508 6.279183 5.856331 0.319279 -0.161527 0.200036 -0.000000 0.000000 0.000000 0.000000 0.000000 0.000000 0.000000 15.841837 -21.783738 -0.422723 79.840973 -29.704722 -19.897538 5.503293 13.578935 0.004530 10.232351 2.544390 0.226226 0.088154 -0.000963 -0.000000 0.000000 0.000000 0.000000 0.000000 0.000000 0.000000 
12.913195 17.777475 -0.989014 -166.596832 89.427044 -170.876052 2.416928 -6.301884 -1.934863 0.340775 -6.630026 -2.225702 -4.885370 -6.613609 3.777283 9.917859 -23.061930 -10.748823 -1.869722 -0.098542 -0.765134 0.000000 0.000000 0.000000 10.678353 18.999196 -0.046970 -37.693818 4.554086 -3.219701 -0.764081 -63.337090 -0.037071 6.292998 5.775468 0.314403 -0.155413 0.211120 0.000000 0.000000 0.000000 0.000000 0.000000 0.000000 0.000000 16.084393 -22.326063 -0.449444 80.407813 -30.653428 -20.906236 5.550756 13.473614 0.003999 10.617798 2.306604 0.212920 0.085979 -0.000578 0.000000 0.000000 0.000000 0.000000 0.000000 0.000000 0.000000 
13.124370 17.860987 -0.927122 -173.174642 88.777283 -177.612144 1.995750 -6.529167 -2.001684 0.270779 -6.839609 -2.214271 -4.847719 -6.826459 3.827415 10.085797 -23.337005 -10.647460 -1.823825 -0.095778 -0.735354 0.000000 0.000000 0.000000 11.532704 18.702599 -0.097010 -36.623983 4.926738 -3.318239 -0.691030 -63.565483 -0.037931 6.360545 5.663266 0.310329 -0.150271 0.222657 0.000000 0.000000 0.000000 0.000000 0.000000 0.000000 0.000000 16.234034 -22.793430 -0.455854 81.120088 -31.490361 -22.148773 5.583174 13.313857 0.003708 10.850361 2.096414 0.197916 0.084630 -0.000995 0.000000 0.000000 0.000000 0.000000 0.000000 0.000000 0.000000 
13.331674 17.935566 -0.867553 -176.947932 88.193028 178.432066 1.552478 -6.713152 -1.984627 0.193203 -7.002799 -2.188190 -4.804085 -6.992811 3.875178 10.205882 -23.552579 -10.560488 -1.770623 -0.092012 -0.710801 0.000000 0.000000 0.000000 12.283228 18.467400 -0.139624 -35.679694 5.191699 -3.467938 -0.626858 -63.700794 -0.038999 6.459971 5.531633 0.306457 -0.146049 0.234157 0.000000 0.000000 0.000000 0.000000 0.000000 0.000000 0.000000 16.284922 -23.179071 -0.440407 81.945049 -32.206721 -23.474994 5.602585 13.141678 0.003655 10.954101 1.934760 0.184515 0.084064 -0.002070 0.000000 0.000000 0.000000 0.000000 0.000000 0.000000 0.000000 
